<svg xmlns="http://www.w3.org/2000/svg" width="40" height="40" viewBox="0 0 40 40"><g><g><path fill="#fff" d="M28.72 34.816a18.564 18.564 0 0 0 3.52-5.157c.965-1.983 1.531-4.224 1.749-6.536.188-2.313.02-4.704-.66-6.964-.632-2.255-1.726-4.38-3.106-6.038-1.382-1.656-3.039-2.793-4.329-3.262-.611-.27-1.226-.314-1.583-.36-.369-.02-.566-.028-.566-.028s-.028.191-.09.545c-.054.335-.261.871-.407 1.383-.384 1.105-1.012 2.366-1.714 3.742-1.356 2.715-2.604 6.023-2.872 9.676-.134 1.809-.123 3.68.174 5.52a26.642 26.642 0 0 0 1.302 5.215c.432 1.174 1.292 3.575 1.882 4.916-.584.065-1.178.102-1.778.111a35.123 35.123 0 0 1-1.01-1.003c-.687-.654-1.275-1.412-1.888-2.123-.61-.709-1.093-1.501-1.623-2.221-.467-.757-.867-1.529-1.268-2.232l-.854-2.138-.45-1.888c-.172-.552-.106-1.07-.159-1.475-.043-.819-.071-1.29-.071-1.29l.168 1.28c.08.397.048.906.26 1.443.173.54.365 1.146.57 1.814.307.622.637 1.299.985 2.013.442.659.881 1.375 1.384 2.078.568.66 1.087 1.388 1.73 2.035.643.642 1.26 1.327 1.976 1.918.184.17.381.32.57.483a191.85 191.85 0 0 1-.79-2.135l-.236-.646a27.938 27.938 0 0 1-1.364-5.463c-.28-1.73-.342-3.628-.183-5.776.028-.359.066-.72.11-1.076a25.713 25.713 0 0 0-3.54-3.512c-1.028-.823-1.959-1.588-2.645-2.31-.294-.35-.64-.693-.8-.934-.173-.256-.26-.394-.26-.394s-.153.075-.432.22c-.261.162-.725.413-1.108.835-.84.817-1.729 2.283-2.225 4.055-.493 1.776-.602 3.811-.303 5.79.262 1.994.965 3.917 1.922 5.65.979 1.726 2.203 3.268 3.65 4.476a15.98 15.98 0 0 0 2.487 1.77c-7.193-2.208-12.44-8.911-12.44-16.822 0-9.7 7.892-17.594 17.59-17.594s17.588 7.895 17.588 17.594c0 6.96-4.07 12.97-9.943 15.823.36-.314.722-.647 1.08-1.008zm-2.324-16.089l-.435-1.447s.195.515.542 1.41c.139.46.458.98.54 1.653.126.662.27 1.416.427 2.23.036.835.077 1.738.114 2.696-.087.947-.144 1.96-.277 2.998-.223 1.02-.359 2.104-.67 3.153-.314 1.054-.58 2.143-.997 3.175-.285.798-.6 1.572-.926 2.34-.615.172-1.244.308-1.884.412.58-1.043 1.14-2.105 1.618-3.227.481-.974.81-2 1.19-2.998.376-1 .581-2.03.87-3.004.202-.994.325-1.97.481-2.888.028-.93.054-1.813.084-2.624-.098-.81-.188-1.553-.264-2.212-.03-.677-.309-1.204-.413-1.667zM0 20c0 11.028 8.972 20 20 20s20-8.972 20-20C40 8.974 31.028 0 20 0S0 8.974 0 20z"/></g></g></svg>