<svg xmlns="http://www.w3.org/2000/svg" width="60" height="60" viewBox="0 0 60 60"><defs><linearGradient id="9ud9a" x1="30" x2="30" y1="0" y2="60" gradientUnits="userSpaceOnUse"><stop offset="0" stop-color="#b4ec51"/><stop offset="1" stop-color="#429321"/></linearGradient></defs><g><g><path fill="url(#9ud9a)" d="M43.09 52.225a27.845 27.845 0 0 0 5.283-7.736c1.448-2.976 2.298-6.337 2.623-9.805.283-3.468.03-7.055-.99-10.446-.948-3.382-2.59-6.569-4.66-9.056-2.073-2.484-4.56-4.19-6.495-4.894-.917-.405-1.84-.47-2.375-.54-.553-.03-.849-.042-.849-.042s-.042.287-.135.818c-.082.503-.392 1.307-.61 2.075-.578 1.657-1.52 3.549-2.573 5.613-2.034 4.072-3.907 9.034-4.309 14.513-.201 2.714-.184 5.522.261 8.28.382 2.738 1.098 5.426 1.954 7.823.648 1.762 1.938 5.363 2.823 7.374-.876.098-1.767.154-2.667.167a52.685 52.685 0 0 1-1.514-1.505c-1.033-.981-1.915-2.118-2.834-3.185-.915-1.063-1.64-2.251-2.436-3.331-.701-1.136-1.3-2.293-1.902-3.348l-1.282-3.207c-.245-1.038-.476-1.99-.676-2.832-.256-.828-.157-1.606-.237-2.212-.065-1.228-.107-1.936-.107-1.936l.252 1.92c.12.596.072 1.36.391 2.165.258.81.547 1.72.855 2.72.46.933.955 1.95 1.478 3.021.663.988 1.322 2.062 2.076 3.117.852.988 1.631 2.081 2.597 3.052.964.963 1.89 1.99 2.963 2.877.277.255.573.48.856.724-.38-1.003-.777-2.085-1.185-3.202l-.355-.969c-.972-2.718-1.678-5.547-2.046-8.195-.422-2.595-.514-5.442-.274-8.664.041-.538.098-1.079.165-1.614a38.574 38.574 0 0 0-5.313-5.267c-1.542-1.236-2.939-2.383-3.968-3.466-.441-.523-.961-1.039-1.201-1.4-.258-.385-.39-.592-.39-.592s-.229.113-.648.33c-.392.244-1.087.62-1.662 1.253-1.26 1.226-2.594 3.425-3.34 6.083-.739 2.664-.902 5.716-.454 8.683.393 2.992 1.449 5.876 2.885 8.476 1.468 2.59 3.306 4.903 5.476 6.714a23.974 23.974 0 0 0 3.732 2.655C11.48 51.923 3.61 41.867 3.61 30.002c0-14.55 11.84-26.39 26.39-26.39 14.552 0 26.391 11.842 26.391 26.39 0 10.439-6.106 19.453-14.92 23.734a30.92 30.92 0 0 0 1.62-1.511zM39.596 28.09c-.414-1.38-.654-2.172-.654-2.172s.294.773.814 2.116c.208.69.687 1.47.81 2.48.19.992.404 2.124.64 3.345.053 1.252.115 2.607.171 4.043-.13 1.422-.217 2.94-.416 4.497-.334 1.53-.538 3.156-1.003 4.73-.472 1.581-.87 3.215-1.497 4.763a64.919 64.919 0 0 1-1.389 3.51c-.922.258-1.867.462-2.826.618.87-1.565 1.711-3.157 2.427-4.84.722-1.463 1.215-3.002 1.784-4.498.566-1.5.873-3.044 1.307-4.506.302-1.492.487-2.954.72-4.332.043-1.396.082-2.72.126-3.935-.146-1.216-.281-2.33-.395-3.32-.045-1.014-.463-1.806-.62-2.499zM0 30c0 16.542 13.457 30 30 30 16.542 0 30-13.457 30-30C60 13.46 46.542 0 30 0 13.457 0 0 13.46 0 30z"/></g></g></svg>